HIERARCHY
ROOT Hips
{
  OFFSET -331.093 83.8371 -317.828
  CHANNELS 6 Xposition Yposition Zposition Zrotation Xrotation Yrotation
  JOINT LeftUpLeg
  {
    OFFSET 8.64259 1.95398 -2.38835
    CHANNELS 3 Zrotation Xrotation Yrotation
    JOINT LeftLeg
    {
      OFFSET 43.7702 0 0
      CHANNELS 3 Zrotation Xrotation Yrotation
      JOINT LeftFoot
      {
        OFFSET 40.6238 0 0
        CHANNELS 3 Zrotation Xrotation Yrotation
        JOINT LeftToeBase
        {
          OFFSET 12.7242 0 0
          CHANNELS 3 Zrotation Xrotation Yrotation
          End Site
          {
            OFFSET 0 0 0
          }
        }
      }
    }
  }
  JOINT RightUpLeg
  {
    OFFSET -8.2249 1.95398 -2.59336
    CHANNELS 3 Zrotation Xrotation Yrotation
    JOINT RightLeg
    {
      OFFSET 43.5653 0 0
      CHANNELS 3 Zrotation Xrotation Yrotation
      JOINT RightFoot
      {
        OFFSET 40.6238 0 0
        CHANNELS 3 Zrotation Xrotation Yrotation
        JOINT RightToeBase
        {
          OFFSET 12.7242 0 0
          CHANNELS 3 Zrotation Xrotation Yrotation
          End Site
          {
            OFFSET 0 0 0
          }
        }
      }
    }
  }
  JOINT Spine
  {
    OFFSET 0.165834 0.87714 6.61349
    CHANNELS 3 Zrotation Xrotation Yrotation
    JOINT Spine1
    {
      OFFSET 7.38963 1.71661e-005 0
      CHANNELS 3 Zrotation Xrotation Yrotation
      JOINT Spine2
      {
        OFFSET 11.9445 1.14441e-005 0
        CHANNELS 3 Zrotation Xrotation Yrotation
        JOINT Spine3
        {
          OFFSET 14.7254 4.19617e-005 0
          CHANNELS 3 Zrotation Xrotation Yrotation
          JOINT Spine4
          {
            OFFSET 10.9679 0 0
            CHANNELS 3 Zrotation Xrotation Yrotation
            JOINT RightShoulder
            {
              OFFSET 2.46616 -1.6653 3.69651
              CHANNELS 3 Zrotation Xrotation Yrotation
              JOINT RightArm
              {
                OFFSET 13.0012 0 0
                CHANNELS 3 Zrotation Xrotation Yrotation
                JOINT RightForeArm
                {
                  OFFSET 28.7848 1.62311e-005 0
                  CHANNELS 3 Zrotation Xrotation Yrotation
                  JOINT RightHand
                  {
                    OFFSET 26.5688 1.62095e-005 0
                    CHANNELS 3 Zrotation Xrotation Yrotation
                    End Site
                    {
                      OFFSET 0 0 0
                    }
                  }
                }
              }
            }
            JOINT LeftShoulder
            {
              OFFSET 2.38034 -1.29275 -3.7523
              CHANNELS 3 Zrotation Xrotation Yrotation
              JOINT LeftArm
              {
                OFFSET 16.3182 6.07031e-005 0
                CHANNELS 3 Zrotation Xrotation Yrotation
                JOINT LeftForeArm
                {
                  OFFSET 27.0901 0 0
                  CHANNELS 3 Zrotation Xrotation Yrotation
                  JOINT LeftHand
                  {
                    OFFSET 24.5451 1.51738e-005 0
                    CHANNELS 3 Zrotation Xrotation Yrotation
                    End Site
                    {
                      OFFSET 0 0 0
                    }
                  }
                }
              }
            }
            JOINT Neck
            {
              OFFSET 5.0226 -0.0266342 0
              CHANNELS 3 Zrotation Xrotation Yrotation
              JOINT Head
              {
                OFFSET 6.69364 2.86102e-005 0
                CHANNELS 3 Zrotation Xrotation Yrotation
                End Site
                {
                  OFFSET 0 0 0
                }
              }
            }
          }
        }
      }
    }
  }
}
MOTION
Frames:	9
Frame Time:	0.0416667
-263.651 92.0801 -289.865 -94.6077 43.8918 -86.9899 -171.235 -6.13076 97.9703 -43.4141 35.0877 1.85615 55.2594 -3.20414 0.55291 43.1238 21.2773 21.0008 175.053 24.6028 94.5229 -42.2799 0.150669 -1.08073 69.8814 -3.67027 -2.18536 30.0223 -0.00582155 0.123754 -0.817096 7.45351 -89.9454 11.9713 -1.59915 0.278539 0.301151 -1.58534 0.348659 -22.2413 -1.60893 -0.215068 -2.22865 -1.60893 -0.215069 91.5767 -41.1474 -100.013 26.4441 -4.45647 18.1184 -11.0575 -10.5694 -37.1942 -3.69221 -0.320566 4.00414 -93.5898 -46.8422 72.9918 -14.3446 1.24189 4.63337 13.7247 5.63481 -61.0552 14.4683 1.14692 3.98632 0.457987 6.93068 1.05421 -1.25874 6.7308 6.16251 
-255.533 91.6103 -279.596 -93.8822 38.3317 -87.9185 -172.342 -8.96756 95.3379 -35.3519 33.7174 2.21045 63.4695 5.27939 6.47432 57.3297 27.1346 7.03633 173.837 29.7728 91.5671 -34.4257 1.29047 0.0663909 60.1341 0.266919 0.11982 23.6762 0.0698533 -0.254071 -1.34977 7.62091 -90.0178 11.6379 -2.69318 0.24459 -0.0303446 -2.67981 0.362965 -22.5873 -2.64211 -0.576712 -2.57464 -2.64211 -0.576716 91.3378 -43.5559 -99.8179 25.9379 0.0363055 20.7356 -3.92911 1.7646 -31.0895 -11.2641 -1.00344 5.35023 -94.0615 -46.1514 72.066 -11.1569 0.619925 -3.20305 11.2395 6.81842 -53.5188 16.0741 1.53375 5.60816 0.548937 6.09916 -1.3939 -0.696127 6.31264 8.55189 
-245.186 93.3563 -267.702 -92.4241 40.631 -92.6352 -174.842 -1.65396 86.136 -33.3444 16.7956 -1.00901 69.3296 8.42504 6.65791 48.2294 16.7266 3.40056 174.743 25.8798 86.46 -8.39866 -7.33825 -1.37175 42.9844 5.80955 5.17134 29.5328 -0.88868 -6.98724 -1.052 7.77508 -89.5406 11.3304 -1.87937 1.1003 -0.339742 -1.82914 1.18195 -22.8843 -2.12311 0.484433 -2.87168 -2.12312 0.484422 90.3545 -45.0995 -101.041 27.5915 -2.89972 18.2492 -2.25693 2.59885 -32.6723 -7.72244 -0.49744 2.8249 -93.7766 -44.9373 72.1359 -12.6605 2.1869 -4.50854 9.29789 6.78557 -49.509 16.7429 1.35559 4.20112 0.362885 5.43606 -2.48123 1.95863 5.9854 8.09704 
-237.533 96.0809 -259.126 -94.3365 44.2703 -88.803 -175.308 3.48763 87.0786 -28.7925 14.0359 -1.02701 66.0899 4.59072 4.84152 41.4548 10.5113 2.28433 176.98 24.8208 87.528 -28.653 -5.1804 -3.1816 54.8724 1.46372 1.19089 37.4267 -2.16509 -10.2667 -0.51746 7.94331 -89.8162 10.9897 -0.944934 0.456675 -0.681005 -0.92393 0.497822 -23.219 -1.0385 0.151545 -3.20637 -1.03851 0.151537 89.8674 -44.6205 -101.956 28.0909 -7.98242 15.0019 -7.14721 -5.71992 -42.4038 -5.4692 -0.364395 2.54415 -93.9062 -45.7312 72.1771 -16.9815 6.47204 3.65545 10.0548 8.31262 -49.4079 15.2467 1.26219 4.36394 -0.445805 5.51039 -1.15533 2.72797 5.89526 7.49827 
-229.855 97.6446 -251.971 -94.639 44.5163 -87.6779 -175.925 7.59506 87.7123 -23.2402 13.8876 -1.17241 61.8198 1.53424 4.46401 36.6019 6.50603 1.89585 176.051 19.6003 87.1185 -50.1435 0.631969 -4.27018 58.9987 0.0159692 -0.0499614 37.3394 -2.02882 -9.60179 -0.275186 7.80617 -89.9529 11.2618 -0.525661 0.14682 -0.409069 -0.518698 0.169813 -22.9452 -0.545504 -0.0179549 -2.93252 -0.545485 -0.0179553 90.9799 -42.2462 -100.74 28.1839 -13.0373 8.7991 -10.0871 -9.46587 -49.413 -9.74302 -0.482561 -0.0652884 -94.7596 -46.1862 71.0096 -23.0269 10.7291 12.1464 7.58935 11.5417 -41.5132 12.2002 0.778804 2.36624 -1.14646 5.02623 -0.224406 2.47429 5.24685 6.68081 
-221.63 96.3393 -245.293 -92.8869 44.7129 -89.075 -176.2 16.1512 87.7946 -24.7132 13.0853 -1.79521 62.5546 2.29627 4.65716 27.7018 -0.408911 1.89282 175.362 10.5031 85.674 -58.569 -5.60015 -5.46701 55.4356 1.96959 1.20232 41.1188 -2.5729 -10.2361 0.146589 7.45698 -89.8789 11.9596 0.348573 0.203819 0.288674 0.357194 0.188281 -22.2466 0.271187 0.299156 -2.23395 0.271193 0.299151 91.4888 -40.6623 -100.287 27.4063 -12.7114 4.44986 -15.6087 -8.89422 -58.3513 -7.01683 -0.346184 -1.08532 -93.827 -45.8699 72.3408 -28.0199 11.5389 18.0492 7.60952 22.06 -33.8896 11.4098 0.66982 1.91498 -0.172001 3.92289 -0.491805 -0.0827789 4.04793 6.54749 
-212.083 93.8622 -237.992 -90.9593 46.4252 -91.9873 -176.824 26.3455 87.4781 -26.6663 9.29197 -1.75407 59.7136 -0.348294 1.71322 28.7422 0.817937 3.66245 175.263 0.320371 84.3101 -52.7315 -18.369 -8.88999 56.4399 2.55355 1.52137 49.2231 -3.10781 -9.2899 0.788282 7.37 -89.6268 12.1285 1.74355 0.553573 0.45855 1.76623 0.476275 -22.0826 1.49657 1.05206 -2.06994 1.49654 1.05206 91.4381 -38.6382 -100.914 24.4828 -11.7426 -2.78125 -19.8974 -10.691 -60.8363 -7.84224 -0.408116 -0.915818 -93.8481 -46.9022 72.6142 -27.9047 5.86296 21.8345 6.9519 22.5435 -30.7366 14.798 1.07367 3.3298 1.57805 2.30461 0.12531 -1.0593 2.28906 4.86497 
-200.384 92.885 -229.168 -89.8751 49.557 -90.4753 -178.058 29.7466 91.9957 -15.6049 6.2518 -0.843416 59.2587 0.258751 0.432378 37.4559 10.1209 9.90854 174.614 -4.57899 89.2137 -38.1965 -17.0162 -8.238 70.4717 -4.93936 -2.66327 53.8555 -1.94267 -4.29935 1.35286 7.59298 -89.9474 11.6991 2.71551 -0.185414 0.031017 2.70472 -0.304846 -22.527 2.64561 0.639884 -2.51433 2.64558 0.639878 91.4064 -35.4618 -101.865 21.2349 -10.24 -11.1263 -18.3393 -11.792 -56.8028 -8.16643 -0.423977 -0.75888 -95.3179 -49.9711 71.3394 -26.557 1.94681 21.6008 6.52909 17.0265 -31.6773 17.562 1.35268 3.85961 2.10292 1.57775 3.61747 0.219681 1.03147 2.73951 
-189.432 94.4093 -220.751 -90.9244 48.3855 -89.5789 -177.654 26.2776 92.2226 -6.9744 1.00233 -1.2407 58.1231 0.516104 0.715589 36.1615 9.83594 12.2917 174.714 0.97008 90.631 -33.4506 -8.30848 -6.04866 77.1428 -8.16453 -4.01099 43.6078 -0.89886 -2.37377 1.08614 7.94054 -90.0103 10.9966 2.15755 -0.224346 -0.672637 2.14559 -0.319137 -23.2218 2.12518 0.434758 -3.20919 2.12518 0.434754 90.8911 -35.8709 -102.682 18.3783 -10.3269 -12.4519 -15.9928 -11.7384 -54.2885 -10.4238 -0.600732 0.73409 -96.5086 -50.8695 69.8787 -27.7704 0.26539 19.5186 7.5637 13.6876 -35.9905 20.9219 1.59924 3.81123 2.40596 2.05006 4.03491 2.12259 1.4785 2.9795 
